<?xml version="1.0" standalone="no"?>
<!DOCTYPE svg PUBLIC "-//W3C//DTD SVG 20010904//EN"
 "http://www.w3.org/TR/2001/REC-SVG-20010904/DTD/svg10.dtd">
<svg version="1.0" xmlns="http://www.w3.org/2000/svg"
 width="604.000000pt" height="183.000000pt" viewBox="0 0 604.000000 183.000000"
 preserveAspectRatio="xMidYMid meet">

<g transform="translate(0.000000,183.000000) scale(0.100000,-0.100000)"
fill="#000000" stroke="none">
<path d="M119 1802 c-39 -20 -62 -41 -84 -77 l-30 -48 0 -742 0 -742 30 -48
c22 -36 45 -57 84 -77 l53 -28 2829 0 c2536 0 2834 2 2867 16 47 19 88 58 115
109 22 40 22 41 22 770 0 729 0 730 -22 770 -27 51 -68 90 -115 109 -33 14
-331 16 -2867 16 l-2829 0 -53 -28z m2780 -270 c36 -27 51 -59 51 -115 0 -65
-22 -104 -73 -128 -51 -22 -77 -24 -122 -5 -103 44 -100 226 5 263 45 16 106
10 139 -15z m1335 14 c18 -7 42 -26 54 -41 44 -55 22 -183 -36 -214 -38 -20
-97 -23 -135 -8 -102 43 -104 212 -3 258 49 22 76 23 120 5z m-2251 -16 c-5
-17 -14 -20 -59 -20 l-54 0 0 -34 0 -35 53 -3 c38 -2 52 -7 52 -18 0 -11 -14
-16 -52 -18 l-53 -3 0 -40 0 -39 53 0 c58 0 68 -4 60 -26 -4 -10 -26 -14 -84
-14 l-79 0 0 135 0 135 84 0 c79 0 84 -1 79 -20z m112 -26 l27 -46 30 46 c22
33 37 46 54 46 13 0 24 -2 24 -5 0 -3 -16 -29 -35 -58 -41 -61 -42 -71 -12
-117 13 -19 32 -47 42 -62 l17 -28 -28 0 c-24 0 -34 8 -57 50 -16 28 -30 50
-33 50 -2 0 -18 -22 -35 -50 -23 -38 -37 -50 -55 -50 -22 0 -24 2 -13 23 7 12
25 41 40 64 16 23 29 46 29 52 0 6 -16 35 -35 65 -19 30 -35 58 -35 61 0 3 11
5 24 5 18 0 31 -12 51 -46z m340 21 c54 -53 9 -145 -72 -145 l-38 0 3 -50 c4
-48 3 -50 -22 -50 l-26 0 0 135 0 135 65 0 c57 0 69 -3 90 -25z m115 -90 l0
-115 60 0 c53 0 60 -2 60 -20 0 -18 -7 -20 -80 -20 l-80 0 0 135 c0 128 1 135
20 135 19 0 20 -7 20 -115z m623 83 c24 -32 17 -69 -17 -102 l-24 -22 30 -39
c51 -68 53 -75 21 -75 -23 0 -34 10 -63 55 -44 70 -64 69 -68 -3 -3 -48 -5
-52 -28 -52 l-24 0 0 135 0 136 76 -3 c70 -3 79 -5 97 -30z m237 12 c0 -18 -7
-20 -55 -20 l-55 0 0 -35 0 -35 50 0 c43 0 50 -3 50 -20 0 -17 -7 -20 -50 -20
l-50 0 0 -40 0 -40 53 0 c58 0 68 -4 60 -26 -4 -10 -26 -14 -84 -14 l-79 0 0
135 0 135 80 0 c73 0 80 -2 80 -20z m230 -115 l0 -135 -25 0 -25 0 0 135 0
135 25 0 25 0 0 -135z m250 115 c0 -17 -7 -20 -40 -20 l-40 0 0 -115 0 -115
-25 0 -25 0 0 115 0 115 -40 0 c-33 0 -40 3 -40 20 0 19 7 20 105 20 98 0 105
-1 105 -20z m598 -80 c35 -55 64 -100 65 -100 1 0 1 45 -1 100 l-3 100 25 0
26 0 0 -135 0 -135 -28 0 c-26 0 -36 12 -93 102 l-64 103 -3 -103 c-2 -94 -4
-102 -22 -102 -19 0 -20 7 -20 135 l0 135 28 0 c23 0 35 -13 90 -100z m-3744
-125 c8 -40 46 -90 87 -110 41 -22 117 -19 157 5 35 22 68 69 77 112 6 24 35
42 35 21 0 -30 -26 -89 -52 -119 -43 -48 -80 -65 -144 -65 -95 0 -176 66 -191
156 -8 49 22 50 31 0z m3468 -492 l3 -248 27 -3 c20 -2 28 -10 33 -33 9 -38 6
-40 -49 -46 -40 -5 -48 -2 -76 25 l-30 30 0 256 0 255 38 4 c20 2 40 4 44 5 4
1 9 -109 10 -245z m226 -250 c1 -1 14 -3 30 -5 22 -2 28 -8 30 -35 3 -28 -1
-33 -22 -39 -44 -11 -94 4 -114 33 -15 24 -17 60 -20 279 l-3 253 43 3 43 3 6
-245 c3 -135 6 -246 7 -247z m-860 442 c32 -11 37 -17 35 -40 -3 -41 -13 -46
-58 -30 -51 18 -127 19 -168 1 -118 -49 -144 -241 -47 -338 36 -37 40 -38 108
-38 99 0 102 2 102 66 l0 54 -60 0 -60 0 0 35 0 35 105 0 105 0 0 -114 0 -114
-47 -16 c-158 -54 -307 -17 -371 92 -34 59 -43 184 -18 260 18 53 68 112 117
138 67 34 175 38 257 9z m-1388 -167 c40 -101 87 -220 105 -265 l33 -83 -49 0
c-31 0 -51 5 -54 13 -2 6 -14 38 -25 70 l-22 58 -106 -3 -105 -3 -25 -67 -25
-68 -43 0 c-24 0 -44 4 -44 9 0 5 42 116 93 247 51 132 96 247 100 257 5 13
18 17 51 17 l44 0 72 -182z m-1700 82 c0 -27 3 -30 30 -30 27 0 30 3 30 30 0
23 4 30 20 30 18 0 20 -7 20 -75 0 -68 -2 -75 -20 -75 -16 0 -20 7 -20 30 0
27 -3 30 -30 30 -27 0 -30 -3 -30 -30 0 -23 -4 -30 -20 -30 -18 0 -20 7 -20
75 0 68 2 75 20 75 16 0 20 -7 20 -30z m172 -27 c3 -54 5 -58 28 -58 23 0 25
4 28 58 3 49 6 57 22 57 17 0 20 -7 20 -53 0 -67 -20 -97 -64 -97 -52 0 -67
18 -73 88 -5 58 -4 62 15 62 19 0 21 -7 24 -57z m232 3 c37 -83 40 -96 21 -96
-8 0 -18 7 -21 15 -8 21 -70 20 -82 -1 -5 -9 -16 -14 -24 -13 -13 3 -10 17 16
76 39 91 57 95 90 19z m77 9 c13 -52 16 -52 34 2 18 53 44 51 64 -7 l15 -45
14 48 c10 34 18 47 32 47 18 0 17 -4 -7 -76 -29 -87 -46 -93 -73 -25 l-17 45
-15 -45 c-23 -69 -42 -62 -71 25 -25 73 -25 76 -6 76 14 0 22 -11 30 -45z
m317 33 c-3 -7 -23 -14 -46 -16 -48 -4 -58 -22 -12 -22 23 0 30 -4 30 -20 0
-16 -7 -20 -30 -20 -20 0 -30 -5 -30 -15 0 -11 12 -15 45 -15 33 0 45 -4 45
-15 0 -12 -13 -15 -60 -15 l-60 0 0 75 0 75 61 0 c44 0 60 -3 57 -12z m72 -63
c0 -68 -2 -75 -20 -75 -18 0 -20 7 -20 75 0 68 2 75 20 75 18 0 20 -7 20 -75z
m1291 -8 c50 -33 72 -86 72 -171 0 -85 -24 -141 -80 -183 -32 -25 -45 -28
-110 -28 l-73 0 0 -77 0 -78 -29 0 c-16 0 -36 -3 -45 -6 -14 -6 -16 23 -16
275 l0 281 41 0 c33 0 42 -4 46 -20 5 -19 7 -19 22 -6 45 41 122 47 172 13z
m403 8 c52 -25 81 -86 81 -170 0 -91 -8 -117 -51 -165 -43 -47 -96 -65 -166
-56 l-48 7 0 -80 0 -79 -41 -4 c-22 -2 -42 -2 -45 1 -2 2 -4 127 -4 278 l0
273 45 0 c39 0 45 -3 45 -21 0 -20 0 -20 28 -1 51 36 104 42 156 17z m916 -3
c57 -28 68 -65 72 -235 l3 -147 -42 0 c-37 0 -43 3 -43 21 0 11 -3 19 -7 17
-115 -59 -165 -61 -216 -9 -26 26 -31 38 -31 81 0 41 5 55 29 80 32 33 114 55
177 47 36 -5 38 -4 38 24 0 16 -9 38 -21 50 -18 18 -29 20 -83 16 -33 -3 -70
-7 -81 -9 -16 -2 -21 3 -23 28 -3 29 0 33 35 42 63 16 154 14 193 -6z m820 0
c45 -24 79 -85 82 -148 l3 -49 -129 -3 -128 -3 6 -27 c18 -75 73 -103 164 -84
59 12 66 10 76 -25 6 -20 1 -24 -45 -37 -167 -50 -289 27 -289 183 0 94 40
169 105 197 43 19 115 17 155 -4z m388 -19 c-3 -35 -6 -38 -41 -44 -22 -3 -50
-18 -67 -34 l-30 -29 0 -128 0 -128 -45 0 -45 0 0 195 0 195 40 0 c38 0 40 -2
40 -30 0 -16 2 -30 4 -30 2 0 20 16 39 35 27 27 43 35 72 35 36 0 36 0 33 -37z
m189 -119 l48 -146 46 144 46 143 48 3 c42 3 47 1 41 -14 -4 -10 -39 -106 -78
-213 -80 -221 -96 -256 -131 -289 -50 -47 -177 -53 -177 -8 0 33 12 42 54 42
31 0 44 6 67 32 16 18 29 41 29 52 0 15 -79 245 -129 373 l-11 27 50 0 49 0
48 -146z"/>
<path d="M2759 1491 c-24 -24 -29 -38 -29 -76 0 -38 5 -52 29 -76 38 -38 74
-38 112 0 23 23 29 38 29 71 0 101 -76 145 -141 81z"/>
<path d="M4119 1491 c-24 -24 -29 -38 -29 -76 0 -38 5 -52 29 -76 31 -31 55
-36 94 -18 32 14 47 49 47 105 0 88 -81 125 -141 65z"/>
<path d="M2329 1515 c0 -3 -1 -24 -1 -47 -1 -40 1 -43 26 -46 36 -4 56 14 56
49 0 22 -6 32 -26 39 -27 11 -54 13 -55 5z"/>
<path d="M3054 1507 c-3 -8 -4 -30 -2 -49 4 -41 36 -50 67 -19 35 35 24 67
-27 77 -23 5 -33 2 -38 -9z"/>
<path d="M2066 920 c-43 -116 -66 -183 -66 -191 0 -5 34 -9 75 -9 41 0 75 2
75 4 0 2 -18 50 -39 107 -22 59 -42 98 -45 89z"/>
<path d="M847 913 c-12 -12 -7 -33 8 -33 17 0 19 9 7 28 -5 7 -11 9 -15 5z"/>
<path d="M2493 819 l-33 -21 0 -108 c0 -118 1 -120 61 -120 74 0 109 47 109
147 0 109 -59 152 -137 102z"/>
<path d="M2930 833 c-8 -3 -25 -15 -37 -26 -21 -19 -23 -29 -23 -123 0 -97 1
-102 23 -108 109 -29 155 27 148 182 -2 58 -57 95 -111 75z"/>
<path d="M3822 674 c-25 -17 -31 -71 -10 -92 18 -18 69 -14 106 8 27 17 32 25
32 60 l0 40 -53 0 c-31 0 -61 -6 -75 -16z"/>
<path d="M4690 843 c-29 -11 -60 -47 -60 -70 0 -22 3 -23 81 -23 l81 0 -7 28
c-11 46 -58 78 -95 65z"/>
</g>
</svg>
